<?xml version="1.0" encoding="utf-8"?>
<!-- Generator: Adobe Illustrator 26.3.1, SVG Export Plug-In . SVG Version: 6.00 Build 0)  -->
<svg version="1.1" id="Laag_1" xmlns="http://www.w3.org/2000/svg" xmlns:xlink="http://www.w3.org/1999/xlink" x="0px" y="0px"
	 viewBox="0 0 500 500" style="enable-background:new 0 0 500 500;" xml:space="preserve">
<style type="text/css">
	.st0{fill:#25FFB3;stroke:#000000;stroke-width:5;stroke-miterlimit:10;}
	.st1{stroke:#25FFB3;stroke-width:5;stroke-miterlimit:10;}
</style>
<polygon class="st0" points="400.5,93.5 400.5,124.5 272.5,124.5 272.5,383.5 235.5,383.5 235.5,124.5 106.5,124.5 106.5,93.5 "/>
<path class="st1" d="M105.85,376.5c-0.13,0.2-0.24,0.41-0.35,0.62v-0.62H105.85z"/>
<path class="st1" d="M401.5,156.5v33.62c-0.61,1.21-1.39,2.35-2.34,3.38c-0.5,0.56-1.05,1.08-1.65,1.57L174.67,376.5H399.5v37h-294
	v-36.38c0.11-0.21,0.22-0.42,0.35-0.62c0.89-1.54,2.08-2.95,3.55-4.15L329.07,193.5H105.5v-37H401.5z"/>
</svg>
